{"title":"Cabin.Fever.2016.WEBRip.480p.x264.AAC-VYTO [P2PDL]","uid":13617053,"size":373013987,"categoryP":"video","categoryS":"movies","magnet":"?xt=urn:btih:3e482288229c88c10e6613c15201dbc22cbfee9d&amp;dn=Cabin.Fever.2016.WEBRip.480p.x264.AAC-VYTO+%5BP2PDL%5D&amp;tr=udp%3A%2F%2Ftracker.leechers-paradise.org%3A6969&amp;tr=udp%3A%2F%2Fzer0day.ch%3A1337&amp;tr=udp%3A%2F%2Fopen.demonii.com%3A1337&amp;tr=udp%3A%2F%2Ftracker.coppersurfer.tk%3A6969&amp;tr=udp%3A%2F%2Fexodus.desync.com%3A6969","seeders":3,"leechers":4,"uploader":"VYTOP2PDL","files":7,"time":1455947586,"description":"____    ____ ____    ____ .___________.  ______   \r\n     /   /      /   / |           | /  __    \r\n    /   /      /   /  `---|  |----`|  |  |  | \r\n        /     _    _/       |  |     |  |  |  | \r\n       /        |  |         |  |     |  `--'  | \r\n    __/         |__|         |__|      ______/  \r\n                                                  \r\nPresenting Small Encodes with quality for years!\r\n                                                                                                   \r\n                                                                                                   \r\n\r\n\r\nCabin.Fever.2016.WEBRip.480p.x264.AAC-VYTO\r\n\r\n\r\nGenre: Comedy, Horror  \nhttp://www.imdb.com/title/tt3832096/\r\n\r\n\r\nFormat                                   : MPEG-4\r\nFile size                                : 351 MiB\r\nDuration                                 : 1h 38m\r\nOverall bit rate                         : 499 Kbps\r\n\r\nVideo\r\nFormat                                   : AVC\r\nBit rate                                 : 464 Kbps\r\nWidth                                    : 720 pixels\r\nHeight                                   : 304 pixels\r\nDisplay aspect ratio                     : 2.35:1\r\nFrame rate mode                          : Constant\r\nFrame rate                               : 23.976 fps\r\nBit depth                                : 8 bit\r\nStream size                              : 326 MiB (93%)\r\nWriting library                          : x264 \r\n\r\nAudio\r\nFormat                                   : AAC\r\nBit rate mode                            : Variable\r\nBit rate                                 : 32.0 Kbps\r\nChannel(s)                               : 2 channels\r\nChannel positions                        : Front: L R\r\nSampling rate                            : 48.0 KHz \r\nStream size                              : 22.5 MiB (6%)\r\nLanguage                                 : English\r\n\r\nSubtitle                                 : Yes (English)\r\n\r\nScreen Shot: (Click to view)\r\n \nhttp://ititli.com/XTj \nhttp://ititli.com/XTk \nhttp://ititli.com/XTo \nhttp://ititli.com/XTG \nhttp://ititli.com/XTH \nhttp://ititli.com/XTM \nhttp://ititli.com/XTU \nhttp://ititli.com/XTh \nhttp://ititli.com/XTs\r\n\r\n----------------------------------------------------------------------------------------------------\r\n\r\n\r\nEncoder Notes: Looking For Early Access To Anything You Can Provide WEBDL, DVDScr, DVDR, BluRay,\r\nDirect Audio, Music Releases and Seedboxes. If You Got anything to offer please contact us.\r\n\r\nSupport us by donating BC - 1FgwdzPsd1y25Gea8wP1qni35uGCtmkRCD\r\n\r\nSend some love!\r\nFind us and join us!","torrent":{"xt":"urn:btih:3e482288229c88c10e6613c15201dbc22cbfee9d","amp;dn":"Cabin.Fever.2016.WEBRip.480p.x264.AAC-VYTO+%5BP2PDL%5D","amp;tr":["udp%3A%2F%2Ftracker.leechers-paradise.org%3A6969","udp%3A%2F%2Fzer0day.ch%3A1337","udp%3A%2F%2Fopen.demonii.com%3A1337","udp%3A%2F%2Ftracker.coppersurfer.tk%3A6969","udp%3A%2F%2Fexodus.desync.com%3A6969"],"infoHash":"3e482288229c88c10e6613c15201dbc22cbfee9d","infoHashBuffer":{"type":"Buffer","data":[62,72,34,136,34,156,136,193,14,102,19,193,82,1,219,194,44,191,238,157]},"announce":[],"urlList":[]}}